<svg width="20" height="20" viewBox="0 0 20 20" fill="none" xmlns="http://www.w3.org/2000/svg">
<mask id="mask0_465_2281" style="mask-type:alpha" maskUnits="userSpaceOnUse" x="0" y="0" width="20" height="20">
<rect width="20" height="20" fill="#D9D9D9"/>
</mask>
<g mask="url(#mask0_465_2281)">
<path d="M10.0053 17.1683C8.29545 17.1683 6.83976 16.57 5.63823 15.3735C4.4367 14.177 3.83594 12.7221 3.83594 11.0089C3.83594 10.2331 3.97205 9.4931 4.24427 8.78893C4.51649 8.08476 4.91253 7.44657 5.4324 6.87435L10.0053 1.75977L14.5782 6.87435C15.0981 7.44657 15.4941 8.08476 15.7664 8.78893C16.0386 9.4931 16.1747 10.2331 16.1747 11.0089C16.1747 12.7221 15.5739 14.177 14.3724 15.3735C13.1709 16.57 11.7152 17.1683 10.0053 17.1683ZM10.0053 15.4391C11.2355 15.4391 12.283 15.0091 13.148 14.1491C14.013 13.289 14.4455 12.2418 14.4455 11.0075C14.4455 10.4594 14.3526 9.92831 14.1668 9.41414C13.9809 8.89997 13.6966 8.44393 13.3139 8.04602L10.0053 4.33372L6.7176 8.04602C6.33483 8.44393 6.04705 8.89997 5.85427 9.41414C5.66149 9.92831 5.5651 10.4594 5.5651 11.0075C5.5651 12.2418 5.9976 13.289 6.8626 14.1491C7.7276 15.0091 8.77517 15.4391 10.0053 15.4391Z" fill="white"/>
</g>
</svg>
