<svg width="20" height="20" viewBox="0 0 20 20" fill="none" xmlns="http://www.w3.org/2000/svg">
<mask id="mask0_465_2267" style="mask-type:alpha" maskUnits="userSpaceOnUse" x="0" y="0" width="20" height="20">
<rect width="20" height="20" fill="#D9D9D9"/>
</mask>
<g mask="url(#mask0_465_2267)">
<path d="M9.25271 14.6893C7.4384 14.6893 5.91146 14.0647 4.67188 12.8155C3.43229 11.5664 2.8125 10.0445 2.8125 8.24992C2.8125 6.43617 3.43229 4.90951 4.67188 3.66992C5.91146 2.43034 7.43465 1.81055 9.24146 1.81055C11.0483 1.81055 12.5749 2.43034 13.8215 3.66992C15.068 4.90951 15.6913 6.43645 15.6913 8.25076C15.6913 8.98492 15.5783 9.68291 15.3525 10.3447C15.1267 11.0065 14.8001 11.6079 14.3727 12.1489L17.6169 15.393C17.7953 15.5715 17.8846 15.7712 17.8846 15.9922C17.8846 16.2132 17.7949 16.4134 17.6156 16.5928C17.4362 16.7721 17.2317 16.8618 17.0021 16.8618C16.7725 16.8618 16.5685 16.773 16.39 16.5955L13.1458 13.3758C12.6082 13.803 12.0101 14.1287 11.3517 14.353C10.6932 14.5772 9.99354 14.6893 9.25271 14.6893ZM9.25417 12.9601C10.5758 12.9601 11.6909 12.5051 12.5994 11.5951C13.5078 10.685 13.9621 9.56569 13.9621 8.23721C13.9621 6.9086 13.5078 5.79353 12.5994 4.89201C11.6909 3.99048 10.5758 3.53971 9.25417 3.53971C7.91875 3.53971 6.79944 3.99048 5.89625 4.89201C4.99319 5.79353 4.54167 6.9086 4.54167 8.23721C4.54167 9.56569 4.99319 10.685 5.89625 11.5951C6.79944 12.5051 7.91875 12.9601 9.25417 12.9601Z" fill="white"/>
</g>
</svg>
